<?xml version="1.0" encoding="UTF-8" standalone="no"?>
<!-- Created with Inkscape (http://www.inkscape.org/) -->

<svg
   xmlns:dc="http://purl.org/dc/elements/1.1/"
   xmlns:cc="http://creativecommons.org/ns#"
   xmlns:rdf="http://www.w3.org/1999/02/22-rdf-syntax-ns#"
   xmlns:svg="http://www.w3.org/2000/svg"
   xmlns="http://www.w3.org/2000/svg"
   xmlns:sodipodi="http://sodipodi.sourceforge.net/DTD/sodipodi-0.dtd"
   xmlns:inkscape="http://www.inkscape.org/namespaces/inkscape"
   id="svg2"
   version="1.1"
   inkscape:version="0.48.4 r9939"
   width="585.68866"
   height="591.57288"
   xml:space="preserve"
   sodipodi:docname="elements_simpleplanes.svg"><metadata
     id="metadata8"><rdf:RDF><cc:Work
         rdf:about=""><dc:format>image/svg+xml</dc:format><dc:type
           rdf:resource="http://purl.org/dc/dcmitype/StillImage" /><dc:title /></cc:Work></rdf:RDF></metadata><defs
     id="defs6"><clipPath
       clipPathUnits="userSpaceOnUse"
       id="clipPath16"><path
         d="m 160.52393,567 2.99902,0 0,-360.15625 -2.99902,0 0,360.15625 z"
         id="path18"
         inkscape:connector-curvature="0" /></clipPath><clipPath
       clipPathUnits="userSpaceOnUse"
       id="clipPath160"><path
         d="m 340.52393,495.03955 2.99902,0 0,-360.15674 -2.99902,0 0,360.15674 z"
         id="path162"
         inkscape:connector-curvature="0" /></clipPath><clipPath
       clipPathUnits="userSpaceOnUse"
       id="clipPath176"><path
         d="m 412.52344,567 3,0 0,-360.15625 -3,0 0,360.15625 z"
         id="path178"
         inkscape:connector-curvature="0" /></clipPath><clipPath
       clipPathUnits="userSpaceOnUse"
       id="clipPath192"><path
         d="m 88.523926,495.03955 2.999023,0 0,-360.15674 -2.999023,0 0,360.15674 z"
         id="path194"
         inkscape:connector-curvature="0" /></clipPath><clipPath
       clipPathUnits="userSpaceOnUse"
       id="clipPath308"><path
         d="m 654.7998,-25.09082 c 0,0 -9.7e-4,-43.88867 -9.7e-4,-43.88867 0,0 45.08008,0 45.08008,0 0,0 9.7e-4,43.88867 9.7e-4,43.88867 0,0 -45.08008,0 -45.08008,0 z"
         clip-rule="evenodd"
         id="path310"
         inkscape:connector-curvature="0" /></clipPath></defs><sodipodi:namedview
     pagecolor="#ffffff"
     bordercolor="#666666"
     borderopacity="1"
     objecttolerance="10"
     gridtolerance="10"
     guidetolerance="10"
     inkscape:pageopacity="0"
     inkscape:pageshadow="2"
     inkscape:window-width="1280"
     inkscape:window-height="1004"
     id="namedview4"
     showgrid="false"
     fit-margin-top="20"
     fit-margin-left="20"
     fit-margin-right="20"
     fit-margin-bottom="20"
     inkscape:zoom="1"
     inkscape:cx="237.34521"
     inkscape:cy="239.78197"
     inkscape:window-x="2557"
     inkscape:window-y="-3"
     inkscape:window-maximized="1"
     inkscape:current-layer="g10" /><g
     id="g10"
     inkscape:groupmode="layer"
     inkscape:label="elements_simpleplanes"
     transform="matrix(1.25,0,0,-1.25,-90.654794,733.79089)"><g
       id="g12"><g
         id="g14" /><g
         id="g20"><g
           clip-path="url(#clipPath16)"
           id="g22"
           style="opacity:0.45"><g
             transform="scale(1,-1)"
             id="g24"><path
               d="m 162.02344,-567 c 0,0 0,360.15625 0,360.15625"
               style="fill:none;stroke:#231f20;stroke-width:2.99920988;stroke-linecap:butt;stroke-linejoin:miter;stroke-miterlimit:4;stroke-opacity:1;stroke-dasharray:none"
               id="path26"
               inkscape:connector-curvature="0" /></g></g></g></g><path
       inkscape:connector-curvature="0"
       id="path30"
       style="fill:#c6d4f0;fill-opacity:1;fill-rule:nonzero;stroke:none"
       d="m 342,404.58838 c 0,0 -252,0 -252,0 0,0 72,72 72,72 0,0 252,0 252,0 0,0 -72,-72 -72,-72 z" /><path
       inkscape:connector-curvature="0"
       id="path32"
       style="fill:none;stroke:#231f20;stroke-width:2.00049996;stroke-linecap:butt;stroke-linejoin:miter;stroke-miterlimit:4;stroke-opacity:1;stroke-dasharray:none"
       d="m 342,404.58838 c 0,0 -252,0 -252,0 0,0 72,72 72,72 0,0 252,0 252,0 0,0 -72,-72 -72,-72 z" /><text
       transform="matrix(1.0000119,0,-0.99998812,-0.99998812,0,0)"
       id="text36"
       x="-234.64709"
       y="-413.59427"
       style="font-size:8.48528099px"><tspan
         style="font-size:17.68245124999999973px;font-variant:normal;font-weight:bold;writing-mode:lr-tb;fill:#231f20;fill-opacity:1;fill-rule:nonzero;stroke:none;font-family:arial;-inkscape-font-specification:arial"
         x="-234.64709 -223.2596 -210.88188 -198.50417 -190.05196 -177.67424 -168.2495 -155.87178"
         y="-413.59427"
         sodipodi:role="line"
         id="tspan38">skeleton</tspan></text>
<path
       inkscape:connector-curvature="0"
       id="path42"
       style="fill:none;stroke:#231f20;stroke-width:1.00030994;stroke-linecap:butt;stroke-linejoin:miter;stroke-miterlimit:4;stroke-opacity:1;stroke-dasharray:none"
       d="m 258.56445,460.66357 c 0,0 27,0 27,0" /><path
       inkscape:connector-curvature="0"
       id="path44"
       style="fill:none;stroke:#231f20;stroke-width:1.00030994;stroke-linecap:butt;stroke-linejoin:miter;stroke-miterlimit:4;stroke-opacity:1;stroke-dasharray:none"
       d="m 245.06445,440.40283 c 0,0 20.25,20.26074 20.25,20.26074" /><path
       inkscape:connector-curvature="0"
       id="path46"
       style="fill:none;stroke:#231f20;stroke-width:1.00030994;stroke-linecap:butt;stroke-linejoin:miter;stroke-miterlimit:4;stroke-opacity:1;stroke-dasharray:none"
       d="m 265.31445,440.40283 c 0,0 27,27.01465 27,27.01465 0,0 -27,0 -27,0 0,0 -27,-27.01465 -27,-27.01465 0,0 27,0 27,0 z" /><path
       inkscape:connector-curvature="0"
       id="path48"
       style="fill:#a5bee7;fill-opacity:1;fill-rule:nonzero;stroke:none"
       d="m 342,314.58789 c 0,0 -252,0 -252,0 0,0 72,72.00049 72,72.00049 0,0 252,0 252,0 0,0 -72,-72.00049 -72,-72.00049 z" /><path
       inkscape:connector-curvature="0"
       id="path50"
       style="fill:none;stroke:#231f20;stroke-width:2.00049996;stroke-linecap:butt;stroke-linejoin:miter;stroke-miterlimit:4;stroke-opacity:1;stroke-dasharray:none"
       d="m 342,314.58789 c 0,0 -252,0 -252,0 0,0 72,72.00049 72,72.00049 0,0 252,0 252,0 0,0 -72,-72.00049 -72,-72.00049 z" /><text
       transform="matrix(1.0000107,0,-0.99998925,-0.99998925,0,0)"
       id="text54"
       x="-148.86397"
       y="-323.59137"
       style="font-size:8.48528099px"><tspan
         style="font-size:17.68248940000000147px;font-variant:normal;font-weight:bold;writing-mode:lr-tb;fill:#231f20;fill-opacity:1;fill-rule:nonzero;stroke:none;font-family:arial;-inkscape-font-specification:arial"
         x="-148.86397 -137.47644 -128.05168 -118.62691 -105.25895 -92.881203 -83.456444 -70.088478 -60.663712"
         y="-323.59137"
         sodipodi:role="line"
         id="tspan56">structure</tspan></text>
<path
       inkscape:connector-curvature="0"
       id="path60"
       style="fill:none;stroke:#231f20;stroke-width:1.00030994;stroke-linecap:butt;stroke-linejoin:miter;stroke-miterlimit:4;stroke-opacity:1;stroke-dasharray:none"
       d="m 247.26465,354.85596 c 0,0 6.75,6.75293 6.75,6.75293 0,0 18,0 18,0 0,0 -6.75,-6.75293 -6.75,-6.75293" /><path
       inkscape:connector-curvature="0"
       id="path62"
       style="fill:none;stroke:#231f20;stroke-width:1.00030994;stroke-linecap:butt;stroke-linejoin:miter;stroke-miterlimit:4;stroke-opacity:1;stroke-dasharray:none"
       d="m 269.76465,368.36279 c 0,0 -6.75,-6.7539 -6.75,-6.7539" /><path
       inkscape:connector-curvature="0"
       id="path64"
       style="fill:none;stroke:#231f20;stroke-width:1.00030994;stroke-linecap:butt;stroke-linejoin:miter;stroke-miterlimit:4;stroke-opacity:1;stroke-dasharray:none"
       d="m 249.51465,345.8501 c 0,0 9,9.00586 9,9.00586 0,0 13.5,0 13.5,0 0,0 -9,-9.00586 -9,-9.00586 0,0 -13.5,0 -13.5,0 z" /><path
       inkscape:connector-curvature="0"
       id="path66"
       style="fill:none;stroke:#231f20;stroke-width:1.00030994;stroke-linecap:butt;stroke-linejoin:miter;stroke-miterlimit:4;stroke-opacity:1;stroke-dasharray:none"
       d="m 231.51465,345.8501 c 0,0 9,9.00586 9,9.00586 0,0 13.5,0 13.5,0 0,0 -9,-9.00586 -9,-9.00586 0,0 -13.5,0 -13.5,0 z" /><path
       inkscape:connector-curvature="0"
       id="path68"
       style="fill:none;stroke:#231f20;stroke-width:1.00030994;stroke-linecap:butt;stroke-linejoin:miter;stroke-miterlimit:4;stroke-opacity:1;stroke-dasharray:none"
       d="m 263.01465,368.36279 c 0,0 9,9.00489 9,9.00489 0,0 13.5,0 13.5,0 0,0 -9,-9.00489 -9,-9.00489 0,0 -13.5,0 -13.5,0 z" /><path
       inkscape:connector-curvature="0"
       id="path70"
       style="fill:#6798d7;fill-opacity:1;fill-rule:nonzero;stroke:none"
       d="m 342,134.58789 c 0,0 -252,0 -252,0 0,0 72,72 72,72 0,0 252,0 252,0 0,0 -72,-72 -72,-72 z" /><path
       inkscape:connector-curvature="0"
       id="path72"
       style="fill:none;stroke:#231f20;stroke-width:2.0006001;stroke-linecap:butt;stroke-linejoin:miter;stroke-miterlimit:4;stroke-opacity:1;stroke-dasharray:none"
       d="m 342,134.58789 c 0,0 -252,0 -252,0 0,0 72,72 72,72 0,0 252,0 252,0 0,0 -72,-72 -72,-72 z" /><text
       transform="matrix(1.0000074,0,-0.99999265,-0.99999265,0,0)"
       id="text76"
       x="37.331955"
       y="-143.58894"
       style="font-size:8.48528099px"><tspan
         style="font-size:17.68255996999999979px;font-variant:normal;font-weight:bold;writing-mode:lr-tb;fill:#231f20;fill-opacity:1;fill-rule:nonzero;stroke:none;font-family:arial;-inkscape-font-specification:arial"
         x="37.331955 48.719524 58.144329 67.56913 79.946922 89.371727 101.74952 114.1273"
         y="-143.58894"
         sodipodi:role="line"
         id="tspan78">strategy</tspan></text>
<path
       inkscape:connector-curvature="0"
       id="path82"
       style="fill:#ffffff;fill-opacity:1;fill-rule:nonzero;stroke:none"
       d="m 247.52051,170.60742 c 0,0 6.75,2.25196 6.75,2.25196" /><path
       inkscape:connector-curvature="0"
       id="path84"
       style="fill:none;stroke:#231f20;stroke-width:1.00030994;stroke-linecap:butt;stroke-linejoin:miter;stroke-miterlimit:4;stroke-opacity:1;stroke-dasharray:none"
       d="m 247.52051,170.60742 c 0,0 6.75,2.25196 6.75,2.25196" /><path
       inkscape:connector-curvature="0"
       id="path86"
       style="fill:none;stroke:#231f20;stroke-width:1.00030994;stroke-linecap:butt;stroke-linejoin:miter;stroke-miterlimit:4;stroke-opacity:1;stroke-dasharray:none"
       d="m 245.27051,168.35742 c 0,0 13.5,4.50196 13.5,4.50196 9,9.0039 15.27929,10.78515 20.25,15.75781 4.9707,4.97461 4.9707,9.00586 0,9.00586 -4.97071,0 -13.0293,-4.03125 -18,-9.00586 -4.97071,-4.97266 -2.25,-6.75391 -11.25,-15.75781" /><path
       inkscape:connector-curvature="0"
       id="path88"
       style="fill:#ffffff;fill-opacity:1;fill-rule:nonzero;stroke:none"
       d="m 243.02051,166.10547 c 0,0 13.5,4.50195 13.5,4.50195" /><path
       inkscape:connector-curvature="0"
       id="path90"
       style="fill:none;stroke:#231f20;stroke-width:1.00030994;stroke-linecap:butt;stroke-linejoin:miter;stroke-miterlimit:4;stroke-opacity:1;stroke-dasharray:none"
       d="m 243.02051,166.10547 c 0,0 13.5,4.50195 13.5,4.50195" /><path
       inkscape:connector-curvature="0"
       id="path92"
       style="fill:#ffffff;fill-opacity:1;fill-rule:nonzero;stroke:none"
       d="m 254.27051,168.35742 c 0,0 -6.75,-2.25195 -6.75,-2.25195" /><path
       inkscape:connector-curvature="0"
       id="path94"
       style="fill:none;stroke:#231f20;stroke-width:1.00030994;stroke-linecap:butt;stroke-linejoin:miter;stroke-miterlimit:4;stroke-opacity:1;stroke-dasharray:none"
       d="m 254.27051,168.35742 c 0,0 -6.75,-2.25195 -6.75,-2.25195" /><path
       inkscape:connector-curvature="0"
       id="path96"
       style="fill:#e8edf9;fill-opacity:1;fill-rule:nonzero;stroke:none"
       d="m 342,494.58838 c 0,0 -252,0 -252,0 0,0 72,72 72,72 0,0 252,0 252,0 0,0 -72,-72 -72,-72 z" /><path
       inkscape:connector-curvature="0"
       id="path98"
       style="fill:none;stroke:#231f20;stroke-width:2.00049996;stroke-linecap:butt;stroke-linejoin:miter;stroke-miterlimit:4;stroke-opacity:1;stroke-dasharray:none"
       d="m 342,494.58838 c 0,0 -252,0 -252,0 0,0 72,72 72,72 0,0 252,0 252,0 0,0 -72,-72 -72,-72 z" /><text
       transform="matrix(1.0000082,0,-0.9999918,-0.9999918,0,0)"
       id="text102"
       x="-318.94305"
       y="-503.44064"
       style="font-size:8.48528099px"><tspan
         style="font-size:17.68251610000000085px;font-variant:normal;font-weight:bold;writing-mode:lr-tb;fill:#231f20;fill-opacity:1;fill-rule:nonzero;stroke:none;font-family:arial;-inkscape-font-specification:arial"
         x="-318.94305 -307.55551 -294.18753 -284.76276 -275.33798 -262.96024 -250.58246"
         y="-503.44064"
         sodipodi:role="line"
         id="tspan104">surface</tspan></text>
<path
       inkscape:connector-curvature="0"
       id="path108"
       style="fill:none;stroke:#231f20;stroke-width:1.00030994;stroke-linecap:butt;stroke-linejoin:miter;stroke-miterlimit:4;stroke-opacity:1;stroke-dasharray:none"
       d="m 246.20313,540.54688 c 0,0 31.5,18.00976 31.5,0 0,0 -31.5,-18.00977 -31.5,0 z" /><path
       inkscape:connector-curvature="0"
       id="path110"
       style="fill:none;stroke:#231f20;stroke-width:1.00030994;stroke-linecap:butt;stroke-linejoin:miter;stroke-miterlimit:4;stroke-opacity:1;stroke-dasharray:none"
       d="m 268.70313,540.54688 c -3.72852,-3.73047 -9.77149,-6.75342 -13.5,-6.75342 -3.72852,0 -3.72852,3.02295 0,6.75342 3.72851,3.72998 9.77148,6.7539 13.5,6.7539 3.72851,0 3.72851,-3.02392 0,-6.7539 z" /><path
       inkscape:connector-curvature="0"
       id="path112"
       style="fill:none;stroke:#231f20;stroke-width:1.00030994;stroke-linecap:butt;stroke-linejoin:miter;stroke-miterlimit:4;stroke-opacity:1;stroke-dasharray:none"
       d="m 264.20313,540.54688 c -1.24317,-1.24366 -3.25782,-2.25098 -4.5,-2.25098 -1.24219,0 -1.24317,1.00732 0,2.25098 1.24218,1.24365 3.25781,2.25146 4.5,2.25146 1.24218,0 1.24218,-1.00781 0,-2.25146 z" /><path
       inkscape:connector-curvature="0"
       id="path114"
       style="fill:#85aadf;fill-opacity:1;fill-rule:nonzero;stroke:none"
       d="m 342,224.58789 c 0,0 -252,0 -252,0 0,0 72,72 72,72 0,0 252,0 252,0 0,0 -72,-72 -72,-72 z" /><path
       inkscape:connector-curvature="0"
       id="path116"
       style="fill:none;stroke:#231f20;stroke-width:2.00049996;stroke-linecap:butt;stroke-linejoin:miter;stroke-miterlimit:4;stroke-opacity:1;stroke-dasharray:none"
       d="m 342,224.58789 c 0,0 -252,0 -252,0 0,0 72,72 72,72 0,0 252,0 252,0 0,0 -72,-72 -72,-72 z" /><text
       transform="matrix(1.0000107,0,-0.99998925,-0.99998925,0,0)"
       id="text120"
       x="-39.521545"
       y="-233.59039"
       style="font-size:8.48528099px"><tspan
         style="font-size:17.68248940000000147px;font-variant:normal;font-weight:bold;writing-mode:lr-tb;fill:#231f20;fill-opacity:1;fill-rule:nonzero;stroke:none;font-family:arial;-inkscape-font-specification:arial"
         x="-39.521545 -28.134022 -15.756279 -3.3785362 9.9894276"
         y="-233.59039"
         sodipodi:role="line"
         id="tspan122">scope</tspan></text>
<path
       inkscape:connector-curvature="0"
       id="path126"
       style="fill:#231f20;fill-opacity:1;fill-rule:nonzero;stroke:none"
       d="m 263.4541,284.9707 c -0.64844,0 -0.64844,0.52539 0,1.17383 0.64844,0.64844 1.69922,1.17383 2.34766,1.17383" /><path
       inkscape:connector-curvature="0"
       id="path128"
       style="fill:#231f20;fill-opacity:1;fill-rule:nonzero;stroke:none"
       d="m 265.80176,287.31836 c 0.64844,0 0.64844,-0.52539 0,-1.17383 -0.64844,-0.64844 -1.69922,-1.17383 -2.34766,-1.17383" /><path
       inkscape:connector-curvature="0"
       id="path130"
       style="fill:#231f20;fill-opacity:1;fill-rule:nonzero;stroke:none"
       d="m 238.80176,259.12891 c -0.64844,-0.64844 -1.69922,-1.17383 -2.34766,-1.17383 -0.64844,0 -0.64844,0.52539 0,1.17383" /><path
       inkscape:connector-curvature="0"
       id="path132"
       style="fill:#231f20;fill-opacity:1;fill-rule:nonzero;stroke:none"
       d="m 236.4541,259.12891 c 0.64844,0.65039 1.69922,1.17578 2.34766,1.17578 0.64844,0 0.64844,-0.52539 0,-1.17578" /><path
       inkscape:connector-curvature="0"
       id="path134"
       style="fill:#231f20;fill-opacity:1;fill-rule:nonzero;stroke:none"
       d="m 249.9541,271.46289 c -0.64844,0 -0.64844,0.52539 0,1.17383 0.64844,0.64844 1.69922,1.17383 2.34766,1.17383" /><path
       inkscape:connector-curvature="0"
       id="path136"
       style="fill:#231f20;fill-opacity:1;fill-rule:nonzero;stroke:none"
       d="m 252.30176,273.81055 c 0.64844,0 0.64844,-0.52539 0,-1.17383 -0.64844,-0.64844 -1.69922,-1.17383 -2.34766,-1.17383" /><path
       inkscape:connector-curvature="0"
       id="path138"
       style="fill:#231f20;fill-opacity:1;fill-rule:nonzero;stroke:none"
       d="m 256.7041,278.2168 c -0.64844,0 -0.64844,0.52539 0,1.17383 0.64844,0.64843 1.69922,1.17382 2.34766,1.17382" /><path
       inkscape:connector-curvature="0"
       id="path140"
       style="fill:#231f20;fill-opacity:1;fill-rule:nonzero;stroke:none"
       d="m 259.05176,280.56445 c 0.64844,0 0.64844,-0.52539 0,-1.17382 -0.64844,-0.64844 -1.69922,-1.17383 -2.34766,-1.17383" /><path
       inkscape:connector-curvature="0"
       id="path142"
       style="fill:#231f20;fill-opacity:1;fill-rule:nonzero;stroke:none"
       d="m 243.2041,264.70898 c -0.64844,0 -0.64844,0.5254 0,1.17383 0.64844,0.64844 1.69922,1.17578 2.34766,1.17578" /><path
       inkscape:connector-curvature="0"
       id="path144"
       style="fill:#231f20;fill-opacity:1;fill-rule:nonzero;stroke:none"
       d="m 245.55176,267.05859 c 0.64844,0 0.64844,-0.52734 0,-1.17578 -0.64844,-0.64843 -1.69922,-1.17383 -2.34766,-1.17383" /><path
       inkscape:connector-curvature="0"
       id="path146"
       style="fill:#231f20;fill-opacity:1;fill-rule:nonzero;stroke:none"
       d="m 268.56543,285.58203 c 0,0 1.125,1.125 1.125,1.125 0,0 22.5,0 22.5,0 0,0 -1.125,-1.125 -1.125,-1.125 0,0 -22.5,0 -22.5,0 z" /><path
       inkscape:connector-curvature="0"
       id="path148"
       style="fill:#231f20;fill-opacity:1;fill-rule:nonzero;stroke:none"
       d="m 261.81543,278.82813 c 0,0 1.125,1.125 1.125,1.125 0,0 22.5,0 22.5,0 0,0 -1.125,-1.125 -1.125,-1.125 0,0 -22.5,0 -22.5,0 z" /><path
       inkscape:connector-curvature="0"
       id="path150"
       style="fill:#231f20;fill-opacity:1;fill-rule:nonzero;stroke:none"
       d="m 255.06543,272.07422 c 0,0 1.125,1.125 1.125,1.125 0,0 22.5,0 22.5,0 0,0 -1.125,-1.125 -1.125,-1.125 0,0 -22.5,0 -22.5,0 z" /><path
       inkscape:connector-curvature="0"
       id="path152"
       style="fill:#231f20;fill-opacity:1;fill-rule:nonzero;stroke:none"
       d="m 248.31543,265.32031 c 0,0 1.125,1.125 1.125,1.125 0,0 22.5,0 22.5,0 0,0 -1.125,-1.125 -1.125,-1.125 0,0 -22.5,0 -22.5,0 z" /><path
       inkscape:connector-curvature="0"
       id="path154"
       style="fill:#231f20;fill-opacity:1;fill-rule:nonzero;stroke:none"
       d="m 241.56543,258.56641 c 0,0 1.125,1.12695 1.125,1.12695 0,0 22.5,0 22.5,0 0,0 -1.125,-1.12695 -1.125,-1.12695 0,0 -22.5,0 -22.5,0 z" /><g
       style="opacity:0.45"
       transform="scale(1,-1)"
       id="g168"><path
         d="m 342.02344,-495.03955 c 0,0 0,360.15674 0,360.15674"
         style="fill:none;stroke:#231f20;stroke-width:2.99920988;stroke-linecap:butt;stroke-linejoin:miter;stroke-miterlimit:4;stroke-opacity:1;stroke-dasharray:none"
         id="path170"
         inkscape:connector-curvature="0" /></g><g
       style="opacity:0.45"
       transform="scale(1,-1)"
       id="g184"><path
         d="m 414.02344,-567 c 0,0 0,360.15625 0,360.15625"
         style="fill:none;stroke:#231f20;stroke-width:2.99920988;stroke-linecap:butt;stroke-linejoin:miter;stroke-miterlimit:4;stroke-opacity:1;stroke-dasharray:none"
         id="path186"
         inkscape:connector-curvature="0" /></g><g
       style="opacity:0.45"
       transform="scale(1,-1)"
       id="g200"><path
         d="m 90.02344,-495.03955 c 0,0 0,360.15674 0,360.15674"
         style="fill:none;stroke:#231f20;stroke-width:2.99920988;stroke-linecap:butt;stroke-linejoin:miter;stroke-miterlimit:4;stroke-opacity:1;stroke-dasharray:none"
         id="path202"
         inkscape:connector-curvature="0" /></g><path
       inkscape:connector-curvature="0"
       id="path204"
       style="fill:none;stroke:#231f20;stroke-width:2.99920988;stroke-linecap:butt;stroke-linejoin:miter;stroke-miterlimit:4;stroke-opacity:1;stroke-dasharray:none"
       d="m 477.03945,539.63672 c 0,0 0,-378.09766 0,-378.09766" /><path
       inkscape:connector-curvature="0"
       id="path206"
       style="fill:#231f20;fill-opacity:1;fill-rule:nonzero;stroke:none"
       d="m 471.48672,165.75195 c 0,0 5.55273,-2.35937 5.55273,-2.35937 0,0 5.55469,2.35937 5.55469,2.35937 0,0 -5.55469,-13.16406 -5.55469,-13.16406 0,0 -5.55273,13.16406 -5.55273,13.16406 z" /><path
       inkscape:connector-curvature="0"
       id="path208"
       style="fill:#231f20;fill-opacity:1;fill-rule:nonzero;stroke:none"
       d="m 482.59219,535.4248 c 0,0 -5.55274,2.3584 -5.55274,2.3584 0,0 -5.55468,-2.3584 -5.55468,-2.3584 0,0 5.55468,13.16358 5.55468,13.16358 0,0 5.55274,-13.16358 5.55274,-13.16358 z" /><text
       transform="scale(1,-1)"
       id="text212"
       x="432.95807"
       y="-130.11426"
       style="font-size:24px"><tspan
         style="font-size:24px;font-variant:normal;font-weight:bold;writing-mode:lr-tb;fill:#231f20;fill-opacity:1;fill-rule:nonzero;stroke:none;font-family:arial;-inkscape-font-specification:arial"
         x="432.95807 447.62207 460.96606 471.62207 479.61407 487.60608 499.60608 511.60605"
         y="-130.11426"
         sodipodi:role="line"
         id="tspan214">Abstract</tspan></text>
<text
       transform="scale(1,-1)"
       id="text216"
       x="429.96558"
       y="-553.22021"
       style="font-size:24px"><tspan
         style="font-size:24px;font-variant:normal;font-weight:bold;writing-mode:lr-tb;fill:#231f20;fill-opacity:1;fill-rule:nonzero;stroke:none;font-family:arial;-inkscape-font-specification:arial"
         x="429.96558 444.62958 456.62958 469.97357 481.97357 489.96558 501.96558 509.95758"
         y="-553.22021"
         sodipodi:role="line"
         id="tspan218">Concrete</tspan></text>
</g></svg>